<?xml version="1.0" encoding="UTF-8"?>
<svg width="1503px" height="175px" viewBox="0 0 1503 175" version="1.1" xmlns="http://www.w3.org/2000/svg" xmlns:xlink="http://www.w3.org/1999/xlink">
    <!-- Generator: sketchtool 61.2 (101010) - https://sketch.com -->
    <title>C88E9065-4C48-43C4-8B44-1F76DDCB7277</title>
    <desc>Created with sketchtool.</desc>
    <g id="Symbols" stroke="none" stroke-width="1" fill="none" fill-rule="evenodd">
        <g id="logo-BOX-horizontal">
            <g id="Group-29">
                <g id="Group-28">
                    <path d="M77.3262664,88.3567649 L8.12157726,49.3235662 C4.41031616,47.2300687 4.41031616,41.910521 8.12157726,39.8173061 L77.3262664,0.783824717 C79.0066927,-0.163832795 81.0639574,-0.163832795 82.7440995,0.783824717 L151.948789,39.8173061 C155.66005,41.910521 155.66005,47.2300687 151.948789,49.3235662 L82.7440995,88.3567649 C81.0639574,89.3047052 79.0066927,89.3047052 77.3262664,88.3567649" id="Fill-13" fill="#17191E"></path>
                    <path d="M68.9044405,174.187508 L2.80767318,136.038074 C1.19090586,135.104834 0.195666075,133.385933 0.195666075,131.526523 L0.195666075,60.4411834 C0.195666075,56.4209895 4.57477798,53.9119023 8.07033748,55.9296325 L74.1671048,94.079067 C75.7838721,95.0120234 76.7788277,96.7309249 76.7788277,98.5909006 L76.7788277,169.675674 C76.7788277,173.696151 72.4,176.204956 68.9044405,174.187508" id="Fill-15" fill="#C72129"></path>
                    <path d="M91.1659822,174.187508 L157.26275,136.038074 C158.879517,135.104834 159.874757,133.385933 159.874757,131.526523 L159.874757,60.4411834 C159.874757,56.4209895 155.495645,53.9119023 152.000085,55.9296325 L85.9033179,94.079067 C84.2865506,95.0120234 83.291595,96.7309249 83.291595,98.5909006 L83.291595,169.675674 C83.291595,173.696151 87.6704227,176.204956 91.1659822,174.187508" id="Fill-17" fill="#1E4487"></path>
                    <path d="M61.8167815,41.1744184 L77.438238,50.3589499 L81.3930515,50.552609 L84.5879361,48.7740549 L84.3554671,46.4914216 L68.7487886,37.3153716 L61.8167815,41.1744184 Z M74.8486821,33.9194103 L90.4434245,43.0883926 L94.44854,43.2845961 L97.773016,41.4336672 L97.5510622,39.2423506 L81.8596945,30.0165428 L74.8486821,33.9194103 Z M81.0611155,22.5647658 L106.741542,37.6636753 L107.373584,43.8842326 L98.580405,48.7791438 L92.6081137,48.4871002 L92.9559645,51.9104847 L85.4694991,56.0782553 L74.1978828,55.5263974 L48.7396945,40.5583845 L81.0611155,22.5647658 Z" id="Fill-19" fill="#FFFFFF"></path>
                    <path d="M26.9667922,100.977827 L26.9667922,117.465711 L29.5344654,121.494103 L44.802103,130.263045 L47.4592966,129.146042 L47.4592966,113.41979 L44.1714813,108.260541 L29.5790835,99.879483 L26.9667922,100.977827 Z M47.9552114,103.130412 L54.7104512,113.731058 L54.7104512,136.581422 L48.0003979,139.403191 L26.2912682,126.934653 L19.6261172,116.475363 L19.6261172,93.5806139 L26.381357,90.7396204 L47.9552114,103.130412 Z" id="Fill-21" fill="#FFFFFF"></path>
                    <polygon id="Fill-23" fill="#FFFFFF" points="110.426913 104.257197 122.902366 109.502674 135.378103 89.9267044 140.962472 86.7193134 140.962472 92.3193134 128.486735 111.895565 140.962472 117.140759 140.962472 122.651987 135.332917 125.885388 122.857464 120.639911 110.381726 140.21588 104.841691 143.397827 104.841691 137.797544 117.272242 118.291688 104.841691 113.065153 104.841691 107.465153"></polygon>
                </g>
            </g>
            <g id="Group-13" transform="translate(210.000000, 48.000000)" fill="#BDBDBD">
                <path d="M59.693355,0.774116006 L59.693355,15.5855776 L20.2542303,15.5855776 L14.8254566,21.0092266 L14.8254566,28.0584981 L19.3953936,32.6241212 L53.0057963,32.6241212 L66.3809136,45.8898744 L66.3809136,65.639191 L53.0057963,78.9995794 L4.81747975e-12,78.9995794 L4.81747975e-12,64.1902208 L46.4529571,64.1902208 L51.8438409,58.8023229 L51.8438409,52.8928799 L46.1519433,47.2442094 L13.448792,47.2442094 L4.81747975e-12,33.7870828 L4.81747975e-12,14.3258779 L13.5666716,0.774116006 L59.693355,0.774116006 Z M156.161757,0.774116006 L168.469644,13.0682811 L168.469644,35.72395 L155.968098,48.2136946 L118.756054,48.2136946 L118.756054,78.9995794 L103.831663,78.9995794 L103.831663,0.774116006 L156.161757,0.774116006 Z M264.162777,0.677588093 L278.69985,15.1988351 L278.69985,64.5752809 L264.259607,78.9997897 L217.549841,78.9997897 L203.208532,64.6720191 L203.208532,15.1988351 L217.745605,0.677588093 L264.162777,0.677588093 Z M486.269715,0.581060181 L486.269715,15.9729511 L457.681822,15.9729511 L457.681822,79 L442.176453,79 L442.176453,15.9729511 L413.590666,15.9729511 L413.590666,0.581060181 L486.269715,0.581060181 Z M579.636833,0.774116006 L579.636833,15.5855776 L540.197708,15.5855776 L534.768934,21.0092266 L534.768934,28.0584981 L539.338871,32.6241212 L572.949274,32.6241212 L586.322286,45.8898744 L586.322286,65.639191 L572.949274,78.9995794 L519.943478,78.9995794 L519.943478,64.1902208 L566.396435,64.1902208 L571.787319,58.8023229 L571.787319,52.8928799 L566.095421,47.2442094 L533.39227,47.2442094 L519.943478,33.7870828 L519.943478,14.3258779 L533.510149,0.774116006 L579.636833,0.774116006 Z M768.116949,-1.0658141e-12 L768.116949,14.9060969 L724.347856,14.9060969 L717.919211,21.330776 L717.919211,57.7611253 L724.347856,64.1900105 L768.116949,64.1900105 L768.116949,78.9993691 L716.561492,78.9993691 L702.99482,65.4455042 L702.99482,13.6506031 L716.658321,-1.0658141e-12 L768.116949,-1.0658141e-12 Z M868.749866,0.677588093 L868.749866,16.073685 L819.234146,16.073685 L819.234146,32.0439022 L864.390429,32.0439022 L864.390429,47.5346344 L819.234146,47.5346344 L819.234146,63.5090576 L868.749866,63.5090576 L868.749866,78.9997897 L803.922437,78.9997897 L803.922437,0.677588093 L868.749866,0.677588093 Z M916.155964,0.774116006 L967.932445,52.503824 L967.932445,0.774116006 L982.757902,0.774116006 L982.757902,78.9995794 L972.390817,78.9995794 L920.934295,27.5916311 L920.934295,78.9995794 L906.203563,78.9995794 L906.203563,0.774116006 L916.155964,0.774116006 Z M1092.21179,0.581060181 L1092.21179,15.9729511 L1063.626,15.9729511 L1063.626,79 L1048.12063,79 L1048.12063,15.9729511 L1019.53274,15.9729511 L1019.53274,0.581060181 L1092.21179,0.581060181 Z M1192.65505,0.677588093 L1192.65505,16.073685 L1143.13722,16.073685 L1143.13722,32.0439022 L1188.2935,32.0439022 L1188.2935,47.5346344 L1143.13722,47.5346344 L1143.13722,63.5090576 L1192.65505,63.5090576 L1192.65505,78.9997897 L1127.82762,78.9997897 L1127.82762,0.677588093 L1192.65505,0.677588093 Z M366.833117,0.969064536 L379.042069,13.1664914 L379.042069,36.4025896 L373.809059,41.6306591 L379.042069,46.8587287 L379.042069,78.9989485 L364.507101,78.9989485 L364.507101,53.0100172 L359.027807,47.5358962 L330.688304,47.5358962 L330.688304,78.9989485 L316.151231,78.9989485 L316.151231,0.969064536 L366.833117,0.969064536 Z M1280.79105,0.969064536 L1293,13.1664914 L1293,36.4025896 L1287.7691,41.6306591 L1293,46.8587287 L1293,78.9989485 L1278.46714,78.9989485 L1278.46714,53.0100172 L1272.98574,47.5358962 L1244.64624,47.5358962 L1244.64624,78.9989485 L1230.11127,78.9989485 L1230.11127,0.969064536 L1280.79105,0.969064536 Z M256.022774,16.4585349 L224.624718,16.4585349 L219.006495,22.0735572 L219.006495,57.6984558 L224.527888,63.2209459 L257.378389,63.2209459 L263.095547,57.5070823 L263.095547,23.5246304 L256.022774,16.4585349 Z M358.992023,15.5870498 L330.688304,15.5870498 L330.688304,34.8505722 L359.076222,34.8505722 L364.507101,29.4269233 L364.507101,21.0990249 L358.992023,15.5870498 Z M1272.94785,15.5870498 L1244.64624,15.5870498 L1244.64624,34.8505722 L1273.03415,34.8505722 L1278.46714,29.4269233 L1278.46714,21.0990249 L1272.94785,15.5870498 Z M148.183839,15.3921012 L118.756054,15.3921012 L118.756054,33.4001299 L148.179629,33.4001299 L153.642082,27.9428329 L153.642082,20.8472952 L148.183839,15.3921012 Z" id="Combined-Shape"></path>
            </g>
        </g>
    </g>
</svg>